<svg width="31" height="38" viewBox="0 0 31 38" fill="none" xmlns="http://www.w3.org/2000/svg">
<path d="M6.15899 3.78113C5.58888 3.78113 5.07107 3.90918 4.62566 4.16643C3.46644 4.83565 2.82727 6.35675 2.82727 8.45024V26.3839C2.82727 28.2201 3.33503 29.651 4.25818 30.4126C4.72698 30.8001 5.25926 30.9726 5.77037 31.0286V16.9722C5.77037 14.3743 6.72468 12.3933 8.45847 11.3922C10.1911 10.3923 12.3848 10.5559 14.6353 11.8543L15.8568 12.5592C16.8334 13.1227 17.5428 14.3509 17.5428 15.48V22.8272C17.5428 23.5877 17.7465 24.1601 18.0884 24.3572C18.4303 24.5543 19.0271 24.4452 19.6863 24.0655L24.7641 21.119C25.3632 20.7738 25.8721 20.3986 26.2863 20.0044C26.3253 19.9609 26.3665 19.922 26.4088 19.8841C27.1716 19.1135 27.5769 18.2717 27.5769 17.4187C27.5769 16.0802 26.5792 14.7663 24.7663 13.7195L9.2346 4.75102C8.11994 4.10739 7.07098 3.78113 6.15899 3.78113Z" fill="#143466"/>
<path d="M30.4042 17.4176C30.4042 15.0257 28.9043 12.8432 26.1794 11.2697L10.6488 2.30235C7.924 0.728915 5.28265 0.52179 3.21147 1.71773C1.14027 2.9137 0 5.30448 0 8.45024V26.3839C0 29.0799 0.873018 31.2845 2.45871 32.5928C3.48094 33.437 4.76487 33.8747 6.16683 33.8747H6.19018C6.62671 35.1397 7.39617 36.1207 8.4585 36.7331C9.20679 37.1651 10.042 37.38 10.9294 37.38C12.0975 37.38 13.357 37.0081 14.6353 36.2711L26.9166 29.1801C28.9912 27.9829 30.2227 26.3115 30.3864 24.4741C30.4989 23.2158 30.098 21.9809 29.245 20.8963C30.0056 19.8284 30.4042 18.6503 30.4042 17.4165V17.4176ZM27.5692 24.2236C27.4901 25.1167 26.7551 26.0075 25.5013 26.7313L13.22 33.8225C11.9016 34.5841 10.6811 34.7523 9.87158 34.2845C9.06201 33.8168 8.59767 32.6753 8.59767 31.153V16.9711C8.59767 15.4489 9.06201 14.3075 9.87158 13.8398C10.1734 13.6661 10.5319 13.5803 10.9306 13.5803C11.6043 13.5803 12.3927 13.8242 13.2211 14.3019L14.4404 15.0068C14.5496 15.077 14.7088 15.352 14.7155 15.48V22.8272C14.7155 24.6367 15.4304 26.0865 16.6753 26.8059C17.9203 27.5242 19.5338 27.4183 21.1028 26.5119L26.1806 23.5655C26.5458 23.355 26.8876 23.1334 27.2084 22.9018C27.4533 23.2838 27.6148 23.7303 27.5703 24.2236H27.5692ZM26.4088 19.883C26.3654 19.9198 26.3253 19.9598 26.2863 20.0033C25.8721 20.3986 25.3621 20.7727 24.7641 21.1179L19.6864 24.0644C19.0282 24.4441 18.4303 24.5543 18.0884 24.3561C17.7466 24.159 17.5428 23.5866 17.5428 22.8261V15.4789C17.5428 14.3509 16.8335 13.1227 15.8569 12.5581L14.6353 11.8532C12.386 10.5537 10.1923 10.39 8.4585 11.3911C6.72471 12.3922 5.7704 14.3732 5.7704 16.9711V31.0272C5.25926 30.9729 4.72811 30.7991 4.25818 30.4116C3.33617 29.65 2.82729 28.2201 2.82729 26.3828V8.45024C2.82729 6.35789 3.46536 4.83565 4.62566 4.16644C5.0722 3.90919 5.58888 3.78114 6.15902 3.78114C7.07101 3.78114 8.11886 4.1074 9.23463 4.75105L24.7663 13.7184C26.5792 14.7652 27.5769 16.0791 27.5769 17.4176C27.5769 18.2706 27.1716 19.1135 26.4088 19.883Z" fill="#66A1FF"/>
</svg>
