<svg width="140" height="45" viewBox="0 0 140 45" fill="none" xmlns="http://www.w3.org/2000/svg">
<path d="M6.15899 6.78113C5.58888 6.78113 5.07107 6.90918 4.62566 7.16643C3.46644 7.83565 2.82727 9.35675 2.82727 11.4502V29.3839C2.82727 31.2201 3.33503 32.651 4.25818 33.4126C4.72698 33.8001 5.25926 33.9726 5.77037 34.0286V19.9722C5.77037 17.3743 6.72468 15.3933 8.45847 14.3922C10.1911 13.3923 12.3848 13.5559 14.6353 14.8543L15.8568 15.5592C16.8334 16.1227 17.5428 17.3509 17.5428 18.48V25.8272C17.5428 26.5877 17.7465 27.1601 18.0884 27.3572C18.4303 27.5543 19.0271 27.4452 19.6863 27.0655L24.7641 24.119C25.3632 23.7738 25.8721 23.3986 26.2863 23.0044C26.3253 22.9609 26.3665 22.922 26.4088 22.8841C27.1716 22.1135 27.5769 21.2717 27.5769 20.4187C27.5769 19.0802 26.5792 17.7663 24.7663 16.7195L9.2346 7.75102C8.11994 7.10739 7.07098 6.78113 6.15899 6.78113Z" fill="#143466"/>
<path d="M30.4042 20.4176C30.4042 18.0257 28.9043 15.8432 26.1794 14.2697L10.6488 5.30235C7.924 3.72891 5.28265 3.52179 3.21147 4.71773C1.14027 5.9137 0 8.30448 0 11.4502V29.3839C0 32.0799 0.873018 34.2845 2.45871 35.5928C3.48094 36.437 4.76487 36.8747 6.16683 36.8747H6.19018C6.62671 38.1397 7.39617 39.1207 8.4585 39.7331C9.20679 40.1651 10.042 40.38 10.9294 40.38C12.0975 40.38 13.357 40.0081 14.6353 39.2711L26.9166 32.1801C28.9912 30.9829 30.2227 29.3115 30.3864 27.4741C30.4989 26.2158 30.098 24.9809 29.245 23.8963C30.0056 22.8284 30.4042 21.6503 30.4042 20.4165V20.4176ZM27.5692 27.2236C27.4901 28.1167 26.7551 29.0075 25.5013 29.7313L13.22 36.8225C11.9016 37.5841 10.6811 37.7523 9.87158 37.2845C9.06201 36.8168 8.59767 35.6753 8.59767 34.153V19.9711C8.59767 18.4489 9.06201 17.3075 9.87158 16.8398C10.1734 16.6661 10.5319 16.5803 10.9306 16.5803C11.6043 16.5803 12.3927 16.8242 13.2211 17.3019L14.4404 18.0068C14.5496 18.077 14.7088 18.352 14.7155 18.48V25.8272C14.7155 27.6367 15.4304 29.0865 16.6753 29.8059C17.9203 30.5242 19.5338 30.4183 21.1028 29.5119L26.1806 26.5655C26.5458 26.355 26.8876 26.1334 27.2084 25.9018C27.4533 26.2838 27.6148 26.7303 27.5703 27.2236H27.5692ZM26.4088 22.883C26.3654 22.9198 26.3253 22.9598 26.2863 23.0033C25.8721 23.3986 25.3621 23.7727 24.7641 24.1179L19.6864 27.0644C19.0282 27.4441 18.4303 27.5543 18.0884 27.3561C17.7466 27.159 17.5428 26.5866 17.5428 25.8261V18.4789C17.5428 17.3509 16.8335 16.1227 15.8569 15.5581L14.6353 14.8532C12.386 13.5537 10.1923 13.39 8.4585 14.3911C6.72471 15.3922 5.7704 17.3732 5.7704 19.9711V34.0272C5.25926 33.9729 4.72811 33.7991 4.25818 33.4116C3.33617 32.65 2.82729 31.2201 2.82729 29.3828V11.4502C2.82729 9.35789 3.46536 7.83565 4.62566 7.16644C5.0722 6.90919 5.58888 6.78114 6.15902 6.78114C7.07101 6.78114 8.11886 7.1074 9.23463 7.75105L24.7663 16.7184C26.5792 17.7652 27.5769 19.0791 27.5769 20.4176C27.5769 21.2706 27.1716 22.1135 26.4088 22.883Z" fill="#66A1FF"/>
<path d="M49.3723 19.1185C49.3097 18.5304 49.0449 18.0726 48.5778 17.7448C48.1154 17.4172 47.514 17.2533 46.7733 17.2533C46.2525 17.2533 45.8059 17.3319 45.4333 17.489C45.0607 17.6461 44.7757 17.8593 44.5781 18.1287C44.3806 18.398 44.2795 18.7055 44.2751 19.0512C44.2751 19.3385 44.3402 19.5876 44.4704 19.7986C44.605 20.0096 44.787 20.1891 45.0158 20.3373C45.2446 20.4809 45.4984 20.6021 45.7768 20.7009C46.0549 20.7996 46.3356 20.8827 46.6184 20.95L47.9113 21.2732C48.4321 21.3944 48.9324 21.5583 49.4127 21.7648C49.8975 21.9713 50.3308 22.2316 50.7125 22.5459C51.0984 22.8601 51.4037 23.2394 51.6281 23.6838C51.8525 24.1282 51.965 24.649 51.965 25.246C51.965 26.054 51.7583 26.7655 51.3452 27.3805C50.9325 27.991 50.3352 28.4691 49.5543 28.8148C48.7775 29.1559 47.8373 29.3265 46.7328 29.3265C45.6599 29.3265 44.7286 29.1604 43.9385 28.8283C43.1529 28.496 42.5379 28.0112 42.0935 27.3738C41.6536 26.7363 41.4157 25.9598 41.3796 25.044H43.8374C43.8734 25.5243 44.0216 25.9238 44.282 26.2426C44.5421 26.5613 44.8812 26.7992 45.2987 26.9563C45.7206 27.1134 46.1921 27.192 46.7126 27.192C47.2558 27.192 47.7318 27.1112 48.1401 26.9496C48.5531 26.7835 48.8764 26.5546 49.11 26.2628C49.3432 25.9665 49.4623 25.6208 49.4668 25.2258C49.4623 24.8667 49.3568 24.5704 49.1501 24.337C48.9437 24.0991 48.6543 23.9016 48.2817 23.7444C47.9135 23.5828 47.4824 23.4392 46.9888 23.3135L45.4197 22.9095C44.2842 22.6177 43.3864 22.1755 42.7265 21.583C42.0711 20.9859 41.7434 20.1936 41.7434 19.206C41.7434 18.3935 41.9633 17.682 42.4032 17.0715C42.8476 16.461 43.4515 15.9874 44.2144 15.6507C44.9776 15.3096 45.8419 15.139 46.8071 15.139C47.7855 15.139 48.6429 15.3096 49.3792 15.6507C50.12 15.9874 50.7012 16.4565 51.1231 17.058C51.545 17.6551 51.7627 18.3419 51.7763 19.1185H49.3723ZM59.0907 18.7751V20.6605H53.145V18.7751H59.0907ZM54.613 16.2972H57.0505V26.0069C57.0505 26.3346 57.1001 26.586 57.1987 26.7611C57.302 26.9316 57.4367 27.0484 57.6026 27.1112C57.7688 27.174 57.9527 27.2055 58.155 27.2055C58.3076 27.2055 58.4467 27.1942 58.5725 27.1718C58.7027 27.1494 58.8013 27.1291 58.8686 27.1112L59.2794 29.0168C59.1492 29.0617 58.9628 29.1111 58.7204 29.1649C58.4827 29.2188 58.1907 29.2502 57.8453 29.2592C57.2347 29.2771 56.6848 29.1851 56.1953 28.9831C55.7061 28.7766 55.3177 28.4579 55.0304 28.027C54.7476 27.596 54.6085 27.0573 54.613 26.4109V16.2972ZM60.9714 29.1178V18.7751H63.335V20.4989H63.4428C63.6311 19.9018 63.9544 19.4417 64.4123 19.1185C64.8747 18.7908 65.4021 18.6269 65.9947 18.6269C66.1293 18.6269 66.2797 18.6337 66.4456 18.6472C66.6163 18.6561 66.7579 18.6718 66.8701 18.6943V20.9366C66.7667 20.9006 66.603 20.8692 66.3783 20.8423C66.1584 20.8108 65.9454 20.7951 65.7387 20.7951C65.2944 20.7951 64.8949 20.8916 64.5403 21.0847C64.1902 21.2732 63.9139 21.5358 63.712 21.8725C63.5101 22.2092 63.4089 22.5975 63.4089 23.0374V29.1178H60.9714ZM72.4843 29.3198C71.4474 29.3198 70.5518 29.1043 69.7977 28.6734C69.0478 28.238 68.4711 27.6229 68.0672 26.8284C67.663 26.0293 67.461 25.0889 67.461 24.007C67.461 22.9431 67.663 22.0094 68.0672 21.2059C68.4755 20.3979 69.0456 19.7694 69.7775 19.3205C70.5091 18.8671 71.3687 18.6404 72.3563 18.6404C72.9937 18.6404 73.5954 18.7437 74.1608 18.9502C74.7309 19.1522 75.2337 19.4664 75.6692 19.8928C76.1091 20.3193 76.4549 20.8625 76.7061 21.5224C76.9577 22.1778 77.0834 22.9588 77.0834 23.8656V24.6131H68.6057V22.9701H74.7467C74.7423 22.5032 74.6412 22.088 74.4437 21.7244C74.2461 21.3563 73.9702 21.0667 73.6153 20.8557C73.2655 20.6448 72.8569 20.5393 72.3901 20.5393C71.8917 20.5393 71.454 20.6605 71.077 20.9029C70.7 21.1408 70.4058 21.455 70.195 21.8456C69.9883 22.2316 69.8828 22.6558 69.8783 23.1182V24.5524C69.8783 25.154 69.9883 25.6702 70.2083 26.1012C70.4282 26.5276 70.7357 26.8553 71.1307 27.0843C71.5258 27.3087 71.9881 27.4209 72.5178 27.4209C72.8727 27.4209 73.1935 27.3716 73.4807 27.2728C73.768 27.1696 74.0173 27.0192 74.2281 26.8216C74.4392 26.6241 74.5985 26.3795 74.7063 26.0877L76.9823 26.3436C76.8385 26.9451 76.5648 27.4703 76.1606 27.9192C75.7612 28.3636 75.2495 28.7093 74.6257 28.9562C74.0015 29.1986 73.2879 29.3198 72.4843 29.3198ZM81.9635 29.3265C81.3081 29.3265 80.7181 29.2098 80.1928 28.9764C79.672 28.7385 79.259 28.3883 78.9537 27.926C78.6528 27.4636 78.5027 26.8935 78.5027 26.2156C78.5027 25.6321 78.6105 25.1495 78.8257 24.7679C79.0412 24.3864 79.3354 24.0811 79.708 23.8522C80.0806 23.6232 80.5003 23.4504 80.9671 23.3337C81.4383 23.2125 81.9256 23.1249 82.4284 23.0711C83.0342 23.0082 83.526 22.9521 83.903 22.9027C84.28 22.8489 84.5537 22.7681 84.7243 22.6603C84.8994 22.5481 84.987 22.3753 84.987 22.1419V22.1015C84.987 21.5942 84.8365 21.2014 84.536 20.9231C84.2351 20.6448 83.8018 20.5056 83.2362 20.5056C82.6392 20.5056 82.1658 20.6358 81.8156 20.8961C81.4699 21.1565 81.2363 21.464 81.1153 21.8187L78.8393 21.4954C79.0188 20.867 79.3152 20.3418 79.7279 19.9198C80.141 19.4933 80.646 19.1746 81.243 18.9636C81.8403 18.7482 82.5001 18.6404 83.2229 18.6404C83.7209 18.6404 84.2171 18.6988 84.7111 18.8155C85.2047 18.9322 85.656 19.1252 86.0643 19.3946C86.4729 19.6594 86.8006 20.0208 87.0474 20.4787C87.2987 20.9366 87.4245 21.5089 87.4245 22.1957V29.1178H85.0811V27.697H85.0005C84.8523 27.9843 84.6434 28.2537 84.3742 28.505C84.1093 28.7519 83.775 28.9517 83.3708 29.1043C82.9713 29.2525 82.5023 29.3265 81.9635 29.3265ZM82.5965 27.5354C83.0857 27.5354 83.5102 27.4389 83.8692 27.2459C84.2285 27.0484 84.5044 26.788 84.6975 26.4648C84.895 26.1416 84.9936 25.7892 84.9936 25.4076V24.1889C84.9174 24.2517 84.7872 24.31 84.6033 24.3639C84.4235 24.4178 84.2215 24.4649 83.9972 24.5053C83.7728 24.5457 83.5506 24.5816 83.3307 24.6131C83.1107 24.6445 82.9198 24.6714 82.7583 24.6939C82.3946 24.7432 82.0691 24.824 81.7818 24.9363C81.4945 25.0485 81.2679 25.2056 81.1017 25.4076C80.9355 25.6051 80.8527 25.861 80.8527 26.1752C80.8527 26.6241 81.0164 26.9631 81.3441 27.192C81.6718 27.4209 82.0893 27.5354 82.5965 27.5354ZM89.7176 29.1178V18.7751H92.0473V20.5325H92.1687C92.3839 19.94 92.741 19.4776 93.2391 19.1454C93.7374 18.8087 94.3322 18.6404 95.0237 18.6404C95.724 18.6404 96.314 18.811 96.7944 19.1522C97.2791 19.4888 97.6204 19.949 97.818 20.5325H97.9257C98.1545 19.9579 98.5407 19.5001 99.084 19.1589C99.6316 18.8132 100.28 18.6404 101.03 18.6404C101.982 18.6404 102.758 18.9412 103.359 19.5427C103.961 20.1442 104.262 21.0219 104.262 22.1755V29.1178H101.818V22.5526C101.818 21.9107 101.647 21.4416 101.306 21.1453C100.965 20.8445 100.547 20.6941 100.054 20.6941C99.4654 20.6941 99.0053 20.8782 98.6731 21.2463C98.3454 21.6099 98.1817 22.0835 98.1817 22.6671V29.1178H95.7913V22.4516C95.7913 21.9174 95.6295 21.4909 95.3065 21.1722C94.9876 20.8535 94.5702 20.6941 94.0538 20.6941C93.7036 20.6941 93.3851 20.7839 93.0978 20.9635C92.8105 21.1386 92.5814 21.3877 92.4111 21.7109C92.2404 22.0296 92.1551 22.4022 92.1551 22.8287V29.1178H89.7176ZM111.23 29.1178V15.3275H113.728V21.6638H113.896L119.277 15.3275H122.327L116.994 21.5156L122.374 29.1178H119.371L115.257 23.2058L113.728 25.0103V29.1178H111.23ZM124.445 29.1178V18.7751H126.882V29.1178H124.445ZM125.67 17.3072C125.284 17.3072 124.952 17.1792 124.674 16.9234C124.395 16.663 124.256 16.351 124.256 15.9874C124.256 15.6193 124.395 15.3073 124.674 15.0514C124.952 14.7911 125.284 14.6609 125.67 14.6609C126.061 14.6609 126.393 14.7911 126.667 15.0514C126.945 15.3073 127.084 15.6193 127.084 15.9874C127.084 16.351 126.945 16.663 126.667 16.9234C126.393 17.1792 126.061 17.3072 125.67 17.3072ZM134.395 18.7751V20.6605H128.45V18.7751H134.395ZM129.917 16.2972H132.355V26.0069C132.355 26.3346 132.405 26.586 132.503 26.7611C132.607 26.9316 132.741 27.0484 132.907 27.1112C133.073 27.174 133.258 27.2055 133.46 27.2055C133.612 27.2055 133.751 27.1942 133.877 27.1718C134.007 27.1494 134.106 27.1291 134.173 27.1112L134.584 29.0168C134.454 29.0617 134.268 29.1111 134.025 29.1649C133.787 29.2188 133.495 29.2502 133.15 29.2592C132.539 29.2771 131.989 29.1851 131.5 28.9831C131.011 28.7766 130.622 28.4579 130.335 28.027C130.052 27.596 129.913 27.0573 129.917 26.4109V16.2972Z" fill="#F5F9FF" fill-opacity="0.95"/>
</svg>
